<svg width="30" height="30" viewBox="0 0 30 30" fill="none" xmlns="http://www.w3.org/2000/svg">
<path fill-rule="evenodd" clip-rule="evenodd" d="M18.4326 12.8571H28.1348C28.4207 12.8571 28.6949 12.7443 28.897 12.5433C29.0992 12.3424 29.2128 12.0699 29.2128 11.7857C29.2128 8.65995 27.9634 5.66221 25.7396 3.45196C23.5158 1.24171 20.4996 0 17.3546 0C17.0687 0 16.7945 0.112882 16.5924 0.313814C16.3902 0.514746 16.2766 0.787268 16.2766 1.07143V10.7143C16.2766 11.2826 16.5038 11.8277 16.9081 12.2295C17.3124 12.6314 17.8608 12.8571 18.4326 12.8571ZM26.9921 10.7143H18.4326V2.20714C20.6183 2.45096 22.6557 3.42561 24.2109 4.9713C25.7661 6.51699 26.7468 8.54199 26.9921 10.7143ZM3.57962 26.548C5.80345 28.7582 8.81962 30 11.9646 30C15.1096 30 18.1257 28.7582 20.3496 26.548C22.5734 24.3377 23.8228 21.34 23.8228 18.2142C23.8228 17.9301 23.7092 17.6576 23.507 17.4566C23.3048 17.2557 23.0306 17.1428 22.7447 17.1428H13.0426V7.49996C13.0426 7.2158 12.929 6.94327 12.7269 6.74234C12.5247 6.54141 12.2505 6.42853 11.9646 6.42853C8.81962 6.42853 5.80345 7.67023 3.57962 9.88048C1.35578 12.0907 0.106445 15.0885 0.106445 18.2142C0.106445 21.34 1.35578 24.3377 3.57962 26.548ZM5.91819 10.674C7.34813 9.54307 9.07036 8.83651 10.8866 8.63567V17.1428C10.8866 17.7111 11.1137 18.2562 11.5181 18.658C11.9224 19.0599 12.4708 19.2857 13.0426 19.2857H21.602C21.4 21.0908 20.6891 22.8025 19.5512 24.2237C18.4133 25.6449 16.8947 26.7178 15.1702 27.3189C13.4458 27.92 11.5856 28.0248 9.80379 27.6212C8.02203 27.2177 6.39117 26.3222 5.09898 25.0379C3.80679 23.7536 2.90581 22.1327 2.49979 20.3618C2.09377 18.591 2.19921 16.7421 2.80398 15.0282C3.40875 13.3143 4.48825 11.8049 5.91819 10.674Z" fill="#6563FF"/>
</svg>
